<?xml version="1.0" encoding="UTF-8" standalone="no"?>
<!DOCTYPE svg PUBLIC "-//W3C//DTD SVG 1.1//EN"
 "http://www.w3.org/Graphics/SVG/1.1/DTD/svg11.dtd">
<!-- Generated by graphviz version 2.38.0 (20140413.2041)
 -->
<!-- Title: unnamed Pages: 1 -->
<svg width="594pt" height="410pt"
 viewBox="0.00 0.00 594.00 410.00" xmlns="http://www.w3.org/2000/svg" xmlns:xlink="http://www.w3.org/1999/xlink">
<g id="graph0" class="graph" transform="scale(1 1) rotate(0) translate(4 406)">
<title>unnamed</title>
<polygon fill="white" stroke="none" points="-4,4 -4,-406 590,-406 590,4 -4,4"/>
<!-- Node0x555c51473128 -->
<g id="node1" class="node"><title>Node0x555c51473128</title>
<polygon fill="none" stroke="black" points="235,-365.5 235,-401.5 339,-401.5 339,-365.5 235,-365.5"/>
<text text-anchor="middle" x="287" y="-379.8" font-family="Times,serif" font-size="14.00">CompoundStmt</text>
</g>
<!-- Node0x555c51472ef0 -->
<g id="node2" class="node"><title>Node0x555c51472ef0</title>
<polygon fill="none" stroke="black" points="96,-292.5 96,-328.5 164,-328.5 164,-292.5 96,-292.5"/>
<text text-anchor="middle" x="130" y="-306.8" font-family="Times,serif" font-size="14.00">DeclStmt</text>
</g>
<!-- Node0x555c51473128&#45;&gt;Node0x555c51472ef0 -->
<g id="edge1" class="edge"><title>Node0x555c51473128&#45;&gt;Node0x555c51472ef0</title>
<path fill="none" stroke="black" d="M249.395,-365.494C226.49,-355.136 197.141,-341.863 173.273,-331.07"/>
<polygon fill="black" stroke="black" points="174.64,-327.846 164.086,-326.915 171.756,-334.224 174.64,-327.846"/>
</g>
<!-- Node0x555c51473088 -->
<g id="node3" class="node"><title>Node0x555c51473088</title>
<polygon fill="none" stroke="black" points="256,-292.5 256,-328.5 318,-328.5 318,-292.5 256,-292.5"/>
<text text-anchor="middle" x="287" y="-306.8" font-family="Times,serif" font-size="14.00">ForStmt</text>
</g>
<!-- Node0x555c51473128&#45;&gt;Node0x555c51473088 -->
<g id="edge2" class="edge"><title>Node0x555c51473128&#45;&gt;Node0x555c51473088</title>
<path fill="none" stroke="black" d="M287,-365.313C287,-357.289 287,-347.547 287,-338.569"/>
<polygon fill="black" stroke="black" points="290.5,-338.529 287,-328.529 283.5,-338.529 290.5,-338.529"/>
</g>
<!-- Node0x555c51473100 -->
<g id="node4" class="node"><title>Node0x555c51473100</title>
<polygon fill="none" stroke="black" points="417.5,-292.5 417.5,-328.5 482.5,-328.5 482.5,-292.5 417.5,-292.5"/>
<text text-anchor="middle" x="450" y="-306.8" font-family="Times,serif" font-size="14.00">CallExpr</text>
</g>
<!-- Node0x555c51473128&#45;&gt;Node0x555c51473100 -->
<g id="edge3" class="edge"><title>Node0x555c51473128&#45;&gt;Node0x555c51473100</title>
<path fill="none" stroke="black" d="M326.043,-365.494C350.763,-354.726 382.713,-340.809 407.985,-329.801"/>
<polygon fill="black" stroke="black" points="409.544,-332.939 417.315,-325.737 406.749,-326.522 409.544,-332.939"/>
</g>
<!-- Node0x555c51472ed0 -->
<g id="node5" class="node"><title>Node0x555c51472ed0</title>
<polygon fill="none" stroke="black" points="9.5,-219.5 9.5,-255.5 100.5,-255.5 100.5,-219.5 9.5,-219.5"/>
<text text-anchor="middle" x="55" y="-233.8" font-family="Times,serif" font-size="14.00">IntegerLiteral</text>
</g>
<!-- Node0x555c51472ef0&#45;&gt;Node0x555c51472ed0 -->
<g id="edge4" class="edge"><title>Node0x555c51472ef0&#45;&gt;Node0x555c51472ed0</title>
<path fill="none" stroke="black" d="M111.845,-292.313C102.448,-283.417 90.8198,-272.409 80.5335,-262.672"/>
<polygon fill="black" stroke="black" points="82.6565,-259.862 72.9882,-255.529 77.8441,-264.945 82.6565,-259.862"/>
</g>
<!-- Node0x555c51472f68 -->
<g id="node6" class="node"><title>Node0x555c51472f68</title>
<polygon fill="none" stroke="black" points="118.5,-219.5 118.5,-255.5 219.5,-255.5 219.5,-219.5 118.5,-219.5"/>
<text text-anchor="middle" x="169" y="-233.8" font-family="Times,serif" font-size="14.00">BinaryOperator</text>
</g>
<!-- Node0x555c51473088&#45;&gt;Node0x555c51472f68 -->
<g id="edge5" class="edge"><title>Node0x555c51473088&#45;&gt;Node0x555c51472f68</title>
<path fill="none" stroke="black" d="M258.736,-292.494C242.943,-282.991 223.074,-271.036 206.049,-260.792"/>
<polygon fill="black" stroke="black" points="207.815,-257.77 197.442,-255.614 204.206,-263.768 207.815,-257.77"/>
</g>
<!-- Node0x555c51472fb8 -->
<g id="node7" class="node"><title>Node0x555c51472fb8</title>
<polygon fill="none" stroke="black" points="238,-219.5 238,-255.5 336,-255.5 336,-219.5 238,-219.5"/>
<text text-anchor="middle" x="287" y="-233.8" font-family="Times,serif" font-size="14.00">UnaryOperator</text>
</g>
<!-- Node0x555c51473088&#45;&gt;Node0x555c51472fb8 -->
<g id="edge6" class="edge"><title>Node0x555c51473088&#45;&gt;Node0x555c51472fb8</title>
<path fill="none" stroke="black" d="M287,-292.313C287,-284.289 287,-274.547 287,-265.569"/>
<polygon fill="black" stroke="black" points="290.5,-265.529 287,-255.529 283.5,-265.529 290.5,-265.529"/>
</g>
<!-- Node0x555c51473068 -->
<g id="node8" class="node"><title>Node0x555c51473068</title>
<polygon fill="none" stroke="black" points="354,-219.5 354,-255.5 458,-255.5 458,-219.5 354,-219.5"/>
<text text-anchor="middle" x="406" y="-233.8" font-family="Times,serif" font-size="14.00">CompoundStmt</text>
</g>
<!-- Node0x555c51473088&#45;&gt;Node0x555c51473068 -->
<g id="edge7" class="edge"><title>Node0x555c51473088&#45;&gt;Node0x555c51473068</title>
<path fill="none" stroke="black" d="M315.503,-292.494C331.43,-282.991 351.467,-271.036 368.637,-260.792"/>
<polygon fill="black" stroke="black" points="370.522,-263.743 377.317,-255.614 366.936,-257.732 370.522,-263.743"/>
</g>
<!-- Node0x555c514730e8 -->
<g id="node17" class="node"><title>Node0x555c514730e8</title>
<polygon fill="none" stroke="black" points="476,-219.5 476,-255.5 586,-255.5 586,-219.5 476,-219.5"/>
<text text-anchor="middle" x="531" y="-233.8" font-family="Times,serif" font-size="14.00">ImplicitCastExpr</text>
</g>
<!-- Node0x555c51473100&#45;&gt;Node0x555c514730e8 -->
<g id="edge15" class="edge"><title>Node0x555c51473100&#45;&gt;Node0x555c514730e8</title>
<path fill="none" stroke="black" d="M469.608,-292.313C479.856,-283.33 492.561,-272.193 503.75,-262.386"/>
<polygon fill="black" stroke="black" points="506.36,-264.753 511.573,-255.529 501.746,-259.488 506.36,-264.753"/>
</g>
<!-- Node0x555c51472f50 -->
<g id="node10" class="node"><title>Node0x555c51472f50</title>
<polygon fill="none" stroke="black" points="0,-146.5 0,-182.5 110,-182.5 110,-146.5 0,-146.5"/>
<text text-anchor="middle" x="55" y="-160.8" font-family="Times,serif" font-size="14.00">ImplicitCastExpr</text>
</g>
<!-- Node0x555c51472f68&#45;&gt;Node0x555c51472f50 -->
<g id="edge8" class="edge"><title>Node0x555c51472f68&#45;&gt;Node0x555c51472f50</title>
<path fill="none" stroke="black" d="M141.694,-219.494C126.577,-210.079 107.593,-198.255 91.2468,-188.075"/>
<polygon fill="black" stroke="black" points="92.8168,-184.929 82.4781,-182.614 89.1162,-190.871 92.8168,-184.929"/>
</g>
<!-- Node0x555c51472f30 -->
<g id="node11" class="node"><title>Node0x555c51472f30</title>
<polygon fill="none" stroke="black" points="128.5,-146.5 128.5,-182.5 219.5,-182.5 219.5,-146.5 128.5,-146.5"/>
<text text-anchor="middle" x="174" y="-160.8" font-family="Times,serif" font-size="14.00">IntegerLiteral</text>
</g>
<!-- Node0x555c51472f68&#45;&gt;Node0x555c51472f30 -->
<g id="edge9" class="edge"><title>Node0x555c51472f68&#45;&gt;Node0x555c51472f30</title>
<path fill="none" stroke="black" d="M170.21,-219.313C170.775,-211.289 171.461,-201.547 172.094,-192.569"/>
<polygon fill="black" stroke="black" points="175.59,-192.75 172.801,-182.529 168.607,-192.258 175.59,-192.75"/>
</g>
<!-- Node0x555c51472f90 -->
<g id="node13" class="node"><title>Node0x555c51472f90</title>
<polygon fill="none" stroke="black" points="243,-146.5 243,-182.5 331,-182.5 331,-146.5 243,-146.5"/>
<text text-anchor="middle" x="287" y="-160.8" font-family="Times,serif" font-size="14.00">DeclRefExpr</text>
</g>
<!-- Node0x555c51472fb8&#45;&gt;Node0x555c51472f90 -->
<g id="edge11" class="edge"><title>Node0x555c51472fb8&#45;&gt;Node0x555c51472f90</title>
<path fill="none" stroke="black" d="M287,-219.313C287,-211.289 287,-201.547 287,-192.569"/>
<polygon fill="black" stroke="black" points="290.5,-192.529 287,-182.529 283.5,-192.529 290.5,-192.529"/>
</g>
<!-- Node0x555c51473040 -->
<g id="node14" class="node"><title>Node0x555c51473040</title>
<polygon fill="none" stroke="black" points="373.5,-146.5 373.5,-182.5 438.5,-182.5 438.5,-146.5 373.5,-146.5"/>
<text text-anchor="middle" x="406" y="-160.8" font-family="Times,serif" font-size="14.00">CallExpr</text>
</g>
<!-- Node0x555c51473068&#45;&gt;Node0x555c51473040 -->
<g id="edge12" class="edge"><title>Node0x555c51473068&#45;&gt;Node0x555c51473040</title>
<path fill="none" stroke="black" d="M406,-219.313C406,-211.289 406,-201.547 406,-192.569"/>
<polygon fill="black" stroke="black" points="409.5,-192.529 406,-182.529 402.5,-192.529 409.5,-192.529"/>
</g>
<!-- Node0x0 -->
<g id="node9" class="node"><title>Node0x0</title>
<polygon fill="none" stroke="black" points="357.5,-365.5 357.5,-401.5 426.5,-401.5 426.5,-365.5 357.5,-365.5"/>
<text text-anchor="middle" x="392" y="-379.8" font-family="Times,serif" font-size="14.00">&lt;NULL&gt;</text>
</g>
<!-- Node0x555c51472f08 -->
<g id="node12" class="node"><title>Node0x555c51472f08</title>
<polygon fill="none" stroke="black" points="11,-73.5 11,-109.5 99,-109.5 99,-73.5 11,-73.5"/>
<text text-anchor="middle" x="55" y="-87.8" font-family="Times,serif" font-size="14.00">DeclRefExpr</text>
</g>
<!-- Node0x555c51472f50&#45;&gt;Node0x555c51472f08 -->
<g id="edge10" class="edge"><title>Node0x555c51472f50&#45;&gt;Node0x555c51472f08</title>
<path fill="none" stroke="black" d="M55,-146.313C55,-138.289 55,-128.547 55,-119.569"/>
<polygon fill="black" stroke="black" points="58.5001,-119.529 55,-109.529 51.5001,-119.529 58.5001,-119.529"/>
</g>
<!-- Node0x555c51473028 -->
<g id="node15" class="node"><title>Node0x555c51473028</title>
<polygon fill="none" stroke="black" points="351,-73.5 351,-109.5 461,-109.5 461,-73.5 351,-73.5"/>
<text text-anchor="middle" x="406" y="-87.8" font-family="Times,serif" font-size="14.00">ImplicitCastExpr</text>
</g>
<!-- Node0x555c51473040&#45;&gt;Node0x555c51473028 -->
<g id="edge13" class="edge"><title>Node0x555c51473040&#45;&gt;Node0x555c51473028</title>
<path fill="none" stroke="black" d="M406,-146.313C406,-138.289 406,-128.547 406,-119.569"/>
<polygon fill="black" stroke="black" points="409.5,-119.529 406,-109.529 402.5,-119.529 409.5,-119.529"/>
</g>
<!-- Node0x555c51472fd8 -->
<g id="node16" class="node"><title>Node0x555c51472fd8</title>
<polygon fill="none" stroke="black" points="362,-0.5 362,-36.5 450,-36.5 450,-0.5 362,-0.5"/>
<text text-anchor="middle" x="406" y="-14.8" font-family="Times,serif" font-size="14.00">DeclRefExpr</text>
</g>
<!-- Node0x555c51473028&#45;&gt;Node0x555c51472fd8 -->
<g id="edge14" class="edge"><title>Node0x555c51473028&#45;&gt;Node0x555c51472fd8</title>
<path fill="none" stroke="black" d="M406,-73.3129C406,-65.2895 406,-55.5475 406,-46.5691"/>
<polygon fill="black" stroke="black" points="409.5,-46.5288 406,-36.5288 402.5,-46.5289 409.5,-46.5288"/>
</g>
<!-- Node0x555c514730c0 -->
<g id="node18" class="node"><title>Node0x555c514730c0</title>
<polygon fill="none" stroke="black" points="487,-146.5 487,-182.5 575,-182.5 575,-146.5 487,-146.5"/>
<text text-anchor="middle" x="531" y="-160.8" font-family="Times,serif" font-size="14.00">DeclRefExpr</text>
</g>
<!-- Node0x555c514730e8&#45;&gt;Node0x555c514730c0 -->
<g id="edge16" class="edge"><title>Node0x555c514730e8&#45;&gt;Node0x555c514730c0</title>
<path fill="none" stroke="black" d="M531,-219.313C531,-211.289 531,-201.547 531,-192.569"/>
<polygon fill="black" stroke="black" points="534.5,-192.529 531,-182.529 527.5,-192.529 534.5,-192.529"/>
</g>
</g>
</svg>
