<?xml version="1.0" encoding="UTF-8" standalone="no"?>
<!DOCTYPE svg PUBLIC "-//W3C//DTD SVG 1.1//EN"
 "http://www.w3.org/Graphics/SVG/1.1/DTD/svg11.dtd">
<!-- Generated by graphviz version 2.38.0 (20140413.2041)
 -->
<!-- Title: unnamed Pages: 1 -->
<svg width="807pt" height="465pt"
 viewBox="0.00 0.00 806.86 465.00" xmlns="http://www.w3.org/2000/svg" xmlns:xlink="http://www.w3.org/1999/xlink">
<g id="graph0" class="graph" transform="scale(1 1) rotate(0) translate(4 461)">
<title>unnamed</title>
<polygon fill="white" stroke="none" points="-4,4 -4,-461 802.862,-461 802.862,4 -4,4"/>
<!-- Node0x55e6eca9abb0 -->
<g id="node1" class="node"><title>Node0x55e6eca9abb0</title>
<polygon fill="none" stroke="black" points="566.362,-9 566.362,-45 651.362,-45 651.362,-9 566.362,-9"/>
<text text-anchor="start" x="574.362" y="-23.3" font-family="Times,serif" font-size="14.00">[B0 (EXIT)]</text>
</g>
<!-- Node0x55e6eca9ac88 -->
<g id="node2" class="node"><title>Node0x55e6eca9ac88</title>
<polygon fill="none" stroke="black" points="418.862,-90.5 418.862,-158.5 798.862,-158.5 798.862,-90.5 418.862,-90.5"/>
<text text-anchor="start" x="426.862" y="-143.3" font-family="Times,serif" font-size="14.00">[B1]</text>
<text text-anchor="start" x="426.862" y="-128.3" font-family="Times,serif" font-size="14.00"> 1: sayBye</text>
<text text-anchor="start" x="426.862" y="-113.3" font-family="Times,serif" font-size="14.00"> 2: [B1.1] (ImplicitCastExpr, FunctionToPointerDecay, void (*)())</text>
<text text-anchor="start" x="426.862" y="-98.3" font-family="Times,serif" font-size="14.00"> 3: [B1.2]()</text>
</g>
<!-- Node0x55e6eca9ac88&#45;&gt;Node0x55e6eca9abb0 -->
<g id="edge1" class="edge"><title>Node0x55e6eca9ac88&#45;&gt;Node0x55e6eca9abb0</title>
<path fill="none" stroke="black" d="M608.862,-90.3668C608.862,-78.9727 608.862,-66.3499 608.862,-55.4577"/>
<polygon fill="black" stroke="black" points="612.362,-55.2519 608.862,-45.252 605.362,-55.252 612.362,-55.2519"/>
</g>
<!-- Node0x55e6eca9ad60 -->
<g id="node3" class="node"><title>Node0x55e6eca9ad60</title>
<polygon fill="none" stroke="black" points="58.862,-0.5 58.862,-53.5 144.862,-53.5 144.862,-0.5 58.862,-0.5"/>
<text text-anchor="start" x="66.862" y="-38.3" font-family="Times,serif" font-size="14.00">[B2]</text>
<text text-anchor="start" x="66.862" y="-23.3" font-family="Times,serif" font-size="14.00"> 1: i</text>
<text text-anchor="start" x="66.862" y="-8.3" font-family="Times,serif" font-size="14.00"> 2: [B2.1]++</text>
</g>
<!-- Node0x55e6eca9af10 -->
<g id="node4" class="node"><title>Node0x55e6eca9af10</title>
<polygon fill="none" stroke="black" points="59.862,-195.5 59.862,-293.5 361.862,-293.5 361.862,-195.5 59.862,-195.5"/>
<text text-anchor="start" x="67.862" y="-278.3" font-family="Times,serif" font-size="14.00">[B4]</text>
<text text-anchor="start" x="67.862" y="-263.3" font-family="Times,serif" font-size="14.00"> 1: i</text>
<text text-anchor="start" x="67.862" y="-248.3" font-family="Times,serif" font-size="14.00"> 2: [B4.1] (ImplicitCastExpr, LValueToRValue, int)</text>
<text text-anchor="start" x="67.862" y="-233.3" font-family="Times,serif" font-size="14.00"> 3: 0</text>
<text text-anchor="start" x="67.862" y="-218.3" font-family="Times,serif" font-size="14.00"> 4: [B4.2] &gt; [B4.3]</text>
<text text-anchor="start" x="67.862" y="-203.3" font-family="Times,serif" font-size="14.00"> T: for (; [B4.4]; ...)</text>
</g>
<!-- Node0x55e6eca9ad60&#45;&gt;Node0x55e6eca9af10 -->
<g id="edge2" class="edge"><title>Node0x55e6eca9ad60&#45;&gt;Node0x55e6eca9af10</title>
<path fill="none" stroke="black" d="M58.7951,-46.3916C40.8705,-56.4631 21.9228,-70.8522 11.862,-90 -2.40207,-117.147 -5.0625,-133.426 11.862,-159 21.9992,-174.318 35.5327,-186.867 50.7937,-197.146"/>
<polygon fill="black" stroke="black" points="49.1192,-200.229 59.4391,-202.627 52.867,-194.317 49.1192,-200.229"/>
</g>
<!-- Node0x55e6eca9af10&#45;&gt;Node0x55e6eca9ac88 -->
<g id="edge5" class="edge"><title>Node0x55e6eca9af10&#45;&gt;Node0x55e6eca9ac88</title>
<path fill="none" stroke="black" d="M361.896,-198.721C403.441,-186.404 447.952,-173.207 487.584,-161.457"/>
<polygon fill="black" stroke="black" points="488.69,-164.779 497.283,-158.581 486.7,-158.068 488.69,-164.779"/>
</g>
<!-- Node0x55e6eca9ae38 -->
<g id="node5" class="node"><title>Node0x55e6eca9ae38</title>
<polygon fill="none" stroke="black" points="20.862,-90.5 20.862,-158.5 400.862,-158.5 400.862,-90.5 20.862,-90.5"/>
<text text-anchor="start" x="28.862" y="-143.3" font-family="Times,serif" font-size="14.00">[B3]</text>
<text text-anchor="start" x="28.862" y="-128.3" font-family="Times,serif" font-size="14.00"> 1: sayHello</text>
<text text-anchor="start" x="28.862" y="-113.3" font-family="Times,serif" font-size="14.00"> 2: [B3.1] (ImplicitCastExpr, FunctionToPointerDecay, void (*)())</text>
<text text-anchor="start" x="28.862" y="-98.3" font-family="Times,serif" font-size="14.00"> 3: [B3.2]()</text>
</g>
<!-- Node0x55e6eca9af10&#45;&gt;Node0x55e6eca9ae38 -->
<g id="edge4" class="edge"><title>Node0x55e6eca9af10&#45;&gt;Node0x55e6eca9ae38</title>
<path fill="none" stroke="black" d="M210.862,-195.164C210.862,-186.477 210.862,-177.47 210.862,-168.931"/>
<polygon fill="black" stroke="black" points="214.362,-168.802 210.862,-158.802 207.362,-168.802 214.362,-168.802"/>
</g>
<!-- Node0x55e6eca9ae38&#45;&gt;Node0x55e6eca9ad60 -->
<g id="edge3" class="edge"><title>Node0x55e6eca9ae38&#45;&gt;Node0x55e6eca9ad60</title>
<path fill="none" stroke="black" d="M173.045,-90.3668C161.962,-80.6562 149.86,-70.0532 138.83,-60.3896"/>
<polygon fill="black" stroke="black" points="140.846,-57.5026 131.018,-53.5452 136.233,-62.7677 140.846,-57.5026"/>
</g>
<!-- Node0x55e6eca9b008 -->
<g id="node6" class="node"><title>Node0x55e6eca9b008</title>
<polygon fill="none" stroke="black" points="169.362,-330.5 169.362,-383.5 252.362,-383.5 252.362,-330.5 169.362,-330.5"/>
<text text-anchor="start" x="177.362" y="-368.3" font-family="Times,serif" font-size="14.00">[B5]</text>
<text text-anchor="start" x="177.362" y="-353.3" font-family="Times,serif" font-size="14.00"> 1: 5</text>
<text text-anchor="start" x="177.362" y="-338.3" font-family="Times,serif" font-size="14.00"> 2: int i = 5;</text>
</g>
<!-- Node0x55e6eca9b008&#45;&gt;Node0x55e6eca9af10 -->
<g id="edge6" class="edge"><title>Node0x55e6eca9b008&#45;&gt;Node0x55e6eca9af10</title>
<path fill="none" stroke="black" d="M210.862,-330.371C210.862,-322.318 210.862,-313.073 210.862,-303.714"/>
<polygon fill="black" stroke="black" points="214.362,-303.565 210.862,-293.565 207.362,-303.565 214.362,-303.565"/>
</g>
<!-- Node0x55e6eca9b100 -->
<g id="node7" class="node"><title>Node0x55e6eca9b100</title>
<polygon fill="none" stroke="black" points="161.362,-420.5 161.362,-456.5 260.362,-456.5 260.362,-420.5 161.362,-420.5"/>
<text text-anchor="start" x="169.362" y="-434.8" font-family="Times,serif" font-size="14.00">[B6 (ENTRY)]</text>
</g>
<!-- Node0x55e6eca9b100&#45;&gt;Node0x55e6eca9b008 -->
<g id="edge7" class="edge"><title>Node0x55e6eca9b100&#45;&gt;Node0x55e6eca9b008</title>
<path fill="none" stroke="black" d="M210.862,-420.25C210.862,-412.486 210.862,-403.014 210.862,-393.825"/>
<polygon fill="black" stroke="black" points="214.362,-393.676 210.862,-383.676 207.362,-393.676 214.362,-393.676"/>
</g>
</g>
</svg>
