<?xml version="1.0" encoding="UTF-8" standalone="no"?>
<!DOCTYPE svg PUBLIC "-//W3C//DTD SVG 1.1//EN"
 "http://www.w3.org/Graphics/SVG/1.1/DTD/svg11.dtd">
<!-- Generated by graphviz version 2.38.0 (20140413.2041)
 -->
<!-- Title: unnamed Pages: 1 -->
<svg width="463pt" height="268pt"
 viewBox="0.00 0.00 463.00 268.00" xmlns="http://www.w3.org/2000/svg" xmlns:xlink="http://www.w3.org/1999/xlink">
<g id="graph0" class="graph" transform="scale(1 1) rotate(0) translate(4 264)">
<title>unnamed</title>
<polygon fill="white" stroke="none" points="-4,4 -4,-264 459,-264 459,4 -4,4"/>
<!-- Node0x55e6eca9abb0 -->
<g id="node1" class="node"><title>Node0x55e6eca9abb0</title>
<polygon fill="none" stroke="black" points="185,-0.5 185,-36.5 270,-36.5 270,-0.5 185,-0.5"/>
<text text-anchor="start" x="193" y="-14.8" font-family="Times,serif" font-size="14.00">[B0 (EXIT)]</text>
</g>
<!-- Node0x55e6eca9ac88 -->
<g id="node2" class="node"><title>Node0x55e6eca9ac88</title>
<polygon fill="none" stroke="black" points="-2.84217e-14,-73.5 -2.84217e-14,-186.5 455,-186.5 455,-73.5 -2.84217e-14,-73.5"/>
<text text-anchor="start" x="8" y="-171.3" font-family="Times,serif" font-size="14.00">[B1]</text>
<text text-anchor="start" x="8" y="-156.3" font-family="Times,serif" font-size="14.00"> 1: printf</text>
<text text-anchor="start" x="8" y="-141.3" font-family="Times,serif" font-size="14.00"> 2: [B1.1] (ImplicitCastExpr, FunctionToPointerDecay, int (*)(const char *, ...))</text>
<text text-anchor="start" x="8" y="-126.3" font-family="Times,serif" font-size="14.00"> 3: &quot;Hello!\n&quot;</text>
<text text-anchor="start" x="8" y="-111.3" font-family="Times,serif" font-size="14.00"> 4: [B1.3] (ImplicitCastExpr, ArrayToPointerDecay, char *)</text>
<text text-anchor="start" x="8" y="-96.3" font-family="Times,serif" font-size="14.00"> 5: [B1.4] (ImplicitCastExpr, BitCast, const char *)</text>
<text text-anchor="start" x="8" y="-81.3" font-family="Times,serif" font-size="14.00"> 6: [B1.2]([B1.5])</text>
</g>
<!-- Node0x55e6eca9ac88&#45;&gt;Node0x55e6eca9abb0 -->
<g id="edge1" class="edge"><title>Node0x55e6eca9ac88&#45;&gt;Node0x55e6eca9abb0</title>
<path fill="none" stroke="black" d="M227.5,-73.2876C227.5,-64.1343 227.5,-55.0169 227.5,-46.9591"/>
<polygon fill="black" stroke="black" points="231,-46.7241 227.5,-36.7242 224,-46.7242 231,-46.7241"/>
</g>
<!-- Node0x55e6eca9ade0 -->
<g id="node3" class="node"><title>Node0x55e6eca9ade0</title>
<polygon fill="none" stroke="black" points="178,-223.5 178,-259.5 277,-259.5 277,-223.5 178,-223.5"/>
<text text-anchor="start" x="186" y="-237.8" font-family="Times,serif" font-size="14.00">[B2 (ENTRY)]</text>
</g>
<!-- Node0x55e6eca9ade0&#45;&gt;Node0x55e6eca9ac88 -->
<g id="edge2" class="edge"><title>Node0x55e6eca9ade0&#45;&gt;Node0x55e6eca9ac88</title>
<path fill="none" stroke="black" d="M227.5,-223.391C227.5,-215.98 227.5,-206.786 227.5,-197.096"/>
<polygon fill="black" stroke="black" points="231,-196.873 227.5,-186.873 224,-196.873 231,-196.873"/>
</g>
</g>
</svg>
