<?xml version="1.0" encoding="UTF-8" standalone="no"?>
<!DOCTYPE svg PUBLIC "-//W3C//DTD SVG 1.1//EN"
 "http://www.w3.org/Graphics/SVG/1.1/DTD/svg11.dtd">
<!-- Generated by graphviz version 2.38.0 (20140413.2041)
 -->
<!-- Title: unnamed Pages: 1 -->
<svg width="477pt" height="3648pt"
 viewBox="0.00 0.00 477.00 3648.00" xmlns="http://www.w3.org/2000/svg" xmlns:xlink="http://www.w3.org/1999/xlink">
<g id="graph0" class="graph" transform="scale(1 1) rotate(0) translate(4 3644)">
<title>unnamed</title>
<polygon fill="white" stroke="none" points="-4,4 -4,-3644 473,-3644 473,4 -4,4"/>
<!-- Node0x561c86a29b10 -->
<g id="node1" class="node"><title>Node0x561c86a29b10</title>
<polygon fill="none" stroke="black" points="82,-3469.5 82,-3639.5 387,-3639.5 387,-3469.5 82,-3469.5"/>
<text text-anchor="middle" x="234.5" y="-3624.3" font-family="Times,serif" font-size="14.00">Edge: (B2, B1)</text>
<polyline fill="none" stroke="black" points="82,-3616.5 387,-3616.5 "/>
<text text-anchor="middle" x="234.5" y="-3601.3" font-family="Times,serif" font-size="14.00">StateID: 0x561c86a29ae0 NodeID: 0x561c86a29b10</text>
<polyline fill="none" stroke="black" points="82,-3593.5 387,-3593.5 "/>
<text text-anchor="start" x="90" y="-3578.3" font-family="Times,serif" font-size="14.00">Location context stack (from current to outer):</text>
<text text-anchor="start" x="90" y="-3563.3" font-family="Times,serif" font-size="14.00">0. (0x561c86a1d9b0) Calling sayBye</text>
<text text-anchor="start" x="90" y="-3532.3" font-family="Times,serif" font-size="14.00">Store (direct and default bindings), 0x0 :</text>
<polyline fill="none" stroke="black" points="82,-3508.5 387,-3508.5 "/>
<text text-anchor="start" x="90" y="-3493.3" font-family="Times,serif" font-size="14.00">Ranges are empty.</text>
</g>
<!-- Node0x561c86a29b50 -->
<g id="node2" class="node"><title>Node0x561c86a29b50</title>
<polygon fill="none" stroke="black" points="82,-3262.5 82,-3432.5 387,-3432.5 387,-3262.5 82,-3262.5"/>
<text text-anchor="middle" x="234.5" y="-3417.3" font-family="Times,serif" font-size="14.00">Block Entrance: B1</text>
<polyline fill="none" stroke="black" points="82,-3409.5 387,-3409.5 "/>
<text text-anchor="middle" x="234.5" y="-3394.3" font-family="Times,serif" font-size="14.00">StateID: 0x561c86a29ae0 NodeID: 0x561c86a29b50</text>
<polyline fill="none" stroke="black" points="82,-3386.5 387,-3386.5 "/>
<text text-anchor="start" x="90" y="-3371.3" font-family="Times,serif" font-size="14.00">Location context stack (from current to outer):</text>
<text text-anchor="start" x="90" y="-3356.3" font-family="Times,serif" font-size="14.00">0. (0x561c86a1d9b0) Calling sayBye</text>
<text text-anchor="start" x="90" y="-3325.3" font-family="Times,serif" font-size="14.00">Store (direct and default bindings), 0x0 :</text>
<polyline fill="none" stroke="black" points="82,-3301.5 387,-3301.5 "/>
<text text-anchor="start" x="90" y="-3286.3" font-family="Times,serif" font-size="14.00">Ranges are empty.</text>
</g>
<!-- Node0x561c86a29b10&#45;&gt;Node0x561c86a29b50 -->
<g id="edge1" class="edge"><title>Node0x561c86a29b10&#45;&gt;Node0x561c86a29b50</title>
<path fill="none" stroke="black" d="M234.5,-3469.23C234.5,-3460.58 234.5,-3451.75 234.5,-3443"/>
<polygon fill="black" stroke="black" points="238,-3442.77 234.5,-3432.77 231,-3442.77 238,-3442.77"/>
</g>
<!-- Node0x561c86a29be0 -->
<g id="node3" class="node"><title>Node0x561c86a29be0</title>
<polygon fill="none" stroke="black" points="82.5,-3032.5 82.5,-3225.5 386.5,-3225.5 386.5,-3032.5 82.5,-3032.5"/>
<text text-anchor="middle" x="234.5" y="-3210.3" font-family="Times,serif" font-size="14.00">PreStmtPurgeDeadSymbols</text>
<polyline fill="none" stroke="black" points="82.5,-3202.5 386.5,-3202.5 "/>
<text text-anchor="middle" x="234.5" y="-3187.3" font-family="Times,serif" font-size="14.00">StateID: 0x561c86a29ae0 NodeID: 0x561c86a29be0</text>
<polyline fill="none" stroke="black" points="82.5,-3179.5 386.5,-3179.5 "/>
<text text-anchor="start" x="90.5" y="-3164.3" font-family="Times,serif" font-size="14.00">Location context stack (from current to outer):</text>
<text text-anchor="start" x="90.5" y="-3149.3" font-family="Times,serif" font-size="14.00">0. (0x561c86a1d9b0) Calling sayBye</text>
<text text-anchor="start" x="90.5" y="-3118.3" font-family="Times,serif" font-size="14.00">Store (direct and default bindings), 0x0 :</text>
<polyline fill="none" stroke="black" points="82.5,-3094.5 386.5,-3094.5 "/>
<text text-anchor="start" x="90.5" y="-3079.3" font-family="Times,serif" font-size="14.00">Ranges are empty.</text>
<polyline fill="none" stroke="black" points="82.5,-3055.5 386.5,-3055.5 "/>
<text text-anchor="start" x="90.5" y="-3040.3" font-family="Times,serif" font-size="14.00">Tag: ExprEngine : Clean Node</text>
</g>
<!-- Node0x561c86a29b50&#45;&gt;Node0x561c86a29be0 -->
<g id="edge2" class="edge"><title>Node0x561c86a29b50&#45;&gt;Node0x561c86a29be0</title>
<path fill="none" stroke="black" d="M234.5,-3262.49C234.5,-3253.76 234.5,-3244.82 234.5,-3235.9"/>
<polygon fill="black" stroke="black" points="238,-3235.85 234.5,-3225.85 231,-3235.85 238,-3235.85"/>
</g>
<!-- Node0x561c86a29cf0 -->
<g id="node4" class="node"><title>Node0x561c86a29cf0</title>
<polygon fill="none" stroke="black" points="62.5,-2733.5 62.5,-2995.5 406.5,-2995.5 406.5,-2733.5 62.5,-2733.5"/>
<text text-anchor="start" x="70.5" y="-2980.3" font-family="Times,serif" font-size="14.00">DeclRefExpr 0x561c86a145a8 printf</text>
<text text-anchor="start" x="70.5" y="-2965.3" font-family="Times,serif" font-size="14.00">line=8 col=5</text>
<text text-anchor="start" x="70.5" y="-2934.3" font-family="Times,serif" font-size="14.00">PostLValue</text>
<polyline fill="none" stroke="black" points="62.5,-2926.5 406.5,-2926.5 "/>
<text text-anchor="middle" x="234.5" y="-2911.3" font-family="Times,serif" font-size="14.00">StateID: 0x561c86a29cc0 NodeID: 0x561c86a29cf0</text>
<polyline fill="none" stroke="black" points="62.5,-2903.5 406.5,-2903.5 "/>
<text text-anchor="start" x="70.5" y="-2888.3" font-family="Times,serif" font-size="14.00">Location context stack (from current to outer):</text>
<text text-anchor="start" x="70.5" y="-2873.3" font-family="Times,serif" font-size="14.00">0. (0x561c86a1d9b0) Calling sayBye</text>
<text text-anchor="start" x="70.5" y="-2842.3" font-family="Times,serif" font-size="14.00">Store (direct and default bindings), 0x0 :</text>
<text text-anchor="start" x="70.5" y="-2795.3" font-family="Times,serif" font-size="14.00">Expressions:</text>
<text text-anchor="start" x="70.5" y="-2780.3" font-family="Times,serif" font-size="14.00"> (0x561c86a1d9b0,0x561c86a145a8) printf : &amp;code{printf}</text>
<polyline fill="none" stroke="black" points="62.5,-2772.5 406.5,-2772.5 "/>
<text text-anchor="start" x="70.5" y="-2757.3" font-family="Times,serif" font-size="14.00">Ranges are empty.</text>
</g>
<!-- Node0x561c86a29be0&#45;&gt;Node0x561c86a29cf0 -->
<g id="edge3" class="edge"><title>Node0x561c86a29be0&#45;&gt;Node0x561c86a29cf0</title>
<path fill="none" stroke="black" d="M234.5,-3032.49C234.5,-3023.76 234.5,-3014.79 234.5,-3005.77"/>
<polygon fill="black" stroke="black" points="238,-3005.58 234.5,-2995.58 231,-3005.58 238,-3005.58"/>
</g>
<!-- Node0x561c86a29d30 -->
<g id="node5" class="node"><title>Node0x561c86a29d30</title>
<polygon fill="none" stroke="black" points="62.5,-2465.5 62.5,-2696.5 406.5,-2696.5 406.5,-2465.5 62.5,-2465.5"/>
<text text-anchor="start" x="70.5" y="-2681.3" font-family="Times,serif" font-size="14.00">DeclRefExpr 0x561c86a145a8 printf</text>
<text text-anchor="start" x="70.5" y="-2666.3" font-family="Times,serif" font-size="14.00">line=8 col=5</text>
<polyline fill="none" stroke="black" points="62.5,-2658.5 406.5,-2658.5 "/>
<text text-anchor="middle" x="234.5" y="-2643.3" font-family="Times,serif" font-size="14.00">StateID: 0x561c86a29cc0 NodeID: 0x561c86a29d30</text>
<polyline fill="none" stroke="black" points="62.5,-2635.5 406.5,-2635.5 "/>
<text text-anchor="start" x="70.5" y="-2620.3" font-family="Times,serif" font-size="14.00">Location context stack (from current to outer):</text>
<text text-anchor="start" x="70.5" y="-2605.3" font-family="Times,serif" font-size="14.00">0. (0x561c86a1d9b0) Calling sayBye</text>
<text text-anchor="start" x="70.5" y="-2574.3" font-family="Times,serif" font-size="14.00">Store (direct and default bindings), 0x0 :</text>
<text text-anchor="start" x="70.5" y="-2527.3" font-family="Times,serif" font-size="14.00">Expressions:</text>
<text text-anchor="start" x="70.5" y="-2512.3" font-family="Times,serif" font-size="14.00"> (0x561c86a1d9b0,0x561c86a145a8) printf : &amp;code{printf}</text>
<polyline fill="none" stroke="black" points="62.5,-2504.5 406.5,-2504.5 "/>
<text text-anchor="start" x="70.5" y="-2489.3" font-family="Times,serif" font-size="14.00">Ranges are empty.</text>
</g>
<!-- Node0x561c86a29cf0&#45;&gt;Node0x561c86a29d30 -->
<g id="edge4" class="edge"><title>Node0x561c86a29cf0&#45;&gt;Node0x561c86a29d30</title>
<path fill="none" stroke="black" d="M234.5,-2733.46C234.5,-2724.66 234.5,-2715.8 234.5,-2707.03"/>
<polygon fill="black" stroke="black" points="238,-2706.77 234.5,-2696.77 231,-2706.77 238,-2706.77"/>
</g>
<!-- Node0x561c86a29e50 -->
<g id="node6" class="node"><title>Node0x561c86a29e50</title>
<polygon fill="none" stroke="black" points="62.5,-2182.5 62.5,-2428.5 406.5,-2428.5 406.5,-2182.5 62.5,-2182.5"/>
<text text-anchor="start" x="70.5" y="-2413.3" font-family="Times,serif" font-size="14.00">ImplicitCastExpr 0x561c86a14638 printf</text>
<text text-anchor="start" x="70.5" y="-2398.3" font-family="Times,serif" font-size="14.00">line=8 col=5</text>
<polyline fill="none" stroke="black" points="62.5,-2390.5 406.5,-2390.5 "/>
<text text-anchor="middle" x="234.5" y="-2375.3" font-family="Times,serif" font-size="14.00">StateID: 0x561c86a29e20 NodeID: 0x561c86a29e50</text>
<polyline fill="none" stroke="black" points="62.5,-2367.5 406.5,-2367.5 "/>
<text text-anchor="start" x="70.5" y="-2352.3" font-family="Times,serif" font-size="14.00">Location context stack (from current to outer):</text>
<text text-anchor="start" x="70.5" y="-2337.3" font-family="Times,serif" font-size="14.00">0. (0x561c86a1d9b0) Calling sayBye</text>
<text text-anchor="start" x="70.5" y="-2306.3" font-family="Times,serif" font-size="14.00">Store (direct and default bindings), 0x0 :</text>
<text text-anchor="start" x="70.5" y="-2259.3" font-family="Times,serif" font-size="14.00">Expressions:</text>
<text text-anchor="start" x="70.5" y="-2244.3" font-family="Times,serif" font-size="14.00"> (0x561c86a1d9b0,0x561c86a145a8) printf : &amp;code{printf}</text>
<text text-anchor="start" x="70.5" y="-2229.3" font-family="Times,serif" font-size="14.00"> (0x561c86a1d9b0,0x561c86a14638) printf : &amp;code{printf}</text>
<polyline fill="none" stroke="black" points="62.5,-2221.5 406.5,-2221.5 "/>
<text text-anchor="start" x="70.5" y="-2206.3" font-family="Times,serif" font-size="14.00">Ranges are empty.</text>
</g>
<!-- Node0x561c86a29d30&#45;&gt;Node0x561c86a29e50 -->
<g id="edge5" class="edge"><title>Node0x561c86a29d30&#45;&gt;Node0x561c86a29e50</title>
<path fill="none" stroke="black" d="M234.5,-2465.2C234.5,-2456.58 234.5,-2447.85 234.5,-2439.14"/>
<polygon fill="black" stroke="black" points="238,-2438.93 234.5,-2428.93 231,-2438.93 238,-2438.93"/>
</g>
<!-- Node0x561c86a29e90 -->
<g id="node7" class="node"><title>Node0x561c86a29e90</title>
<polygon fill="none" stroke="black" points="62.5,-1899.5 62.5,-2145.5 406.5,-2145.5 406.5,-1899.5 62.5,-1899.5"/>
<text text-anchor="start" x="70.5" y="-2130.3" font-family="Times,serif" font-size="14.00">StringLiteral 0x561c86a14608 &quot;Bye!\n&quot;</text>
<text text-anchor="start" x="70.5" y="-2115.3" font-family="Times,serif" font-size="14.00">line=8 col=12</text>
<polyline fill="none" stroke="black" points="62.5,-2107.5 406.5,-2107.5 "/>
<text text-anchor="middle" x="234.5" y="-2092.3" font-family="Times,serif" font-size="14.00">StateID: 0x561c86a29e20 NodeID: 0x561c86a29e90</text>
<polyline fill="none" stroke="black" points="62.5,-2084.5 406.5,-2084.5 "/>
<text text-anchor="start" x="70.5" y="-2069.3" font-family="Times,serif" font-size="14.00">Location context stack (from current to outer):</text>
<text text-anchor="start" x="70.5" y="-2054.3" font-family="Times,serif" font-size="14.00">0. (0x561c86a1d9b0) Calling sayBye</text>
<text text-anchor="start" x="70.5" y="-2023.3" font-family="Times,serif" font-size="14.00">Store (direct and default bindings), 0x0 :</text>
<text text-anchor="start" x="70.5" y="-1976.3" font-family="Times,serif" font-size="14.00">Expressions:</text>
<text text-anchor="start" x="70.5" y="-1961.3" font-family="Times,serif" font-size="14.00"> (0x561c86a1d9b0,0x561c86a145a8) printf : &amp;code{printf}</text>
<text text-anchor="start" x="70.5" y="-1946.3" font-family="Times,serif" font-size="14.00"> (0x561c86a1d9b0,0x561c86a14638) printf : &amp;code{printf}</text>
<polyline fill="none" stroke="black" points="62.5,-1938.5 406.5,-1938.5 "/>
<text text-anchor="start" x="70.5" y="-1923.3" font-family="Times,serif" font-size="14.00">Ranges are empty.</text>
</g>
<!-- Node0x561c86a29e50&#45;&gt;Node0x561c86a29e90 -->
<g id="edge6" class="edge"><title>Node0x561c86a29e50&#45;&gt;Node0x561c86a29e90</title>
<path fill="none" stroke="black" d="M234.5,-2182.48C234.5,-2173.75 234.5,-2164.92 234.5,-2156.13"/>
<polygon fill="black" stroke="black" points="238,-2155.85 234.5,-2145.85 231,-2155.85 238,-2155.85"/>
</g>
<!-- Node0x561c86a2a0a8 -->
<g id="node8" class="node"><title>Node0x561c86a2a0a8</title>
<polygon fill="none" stroke="black" points="-2.84217e-14,-1601.5 -2.84217e-14,-1862.5 469,-1862.5 469,-1601.5 -2.84217e-14,-1601.5"/>
<text text-anchor="start" x="8" y="-1847.3" font-family="Times,serif" font-size="14.00">ImplicitCastExpr 0x561c86a14680 &quot;Bye!\n&quot;</text>
<text text-anchor="start" x="8" y="-1832.3" font-family="Times,serif" font-size="14.00">line=8 col=12</text>
<polyline fill="none" stroke="black" points="-2.84217e-14,-1824.5 469,-1824.5 "/>
<text text-anchor="middle" x="234.5" y="-1809.3" font-family="Times,serif" font-size="14.00">StateID: 0x561c86a2a078 NodeID: 0x561c86a2a0a8</text>
<polyline fill="none" stroke="black" points="-2.84217e-14,-1801.5 469,-1801.5 "/>
<text text-anchor="start" x="8" y="-1786.3" font-family="Times,serif" font-size="14.00">Location context stack (from current to outer):</text>
<text text-anchor="start" x="8" y="-1771.3" font-family="Times,serif" font-size="14.00">0. (0x561c86a1d9b0) Calling sayBye</text>
<text text-anchor="start" x="8" y="-1740.3" font-family="Times,serif" font-size="14.00">Store (direct and default bindings), 0x0 :</text>
<text text-anchor="start" x="8" y="-1693.3" font-family="Times,serif" font-size="14.00">Expressions:</text>
<text text-anchor="start" x="8" y="-1678.3" font-family="Times,serif" font-size="14.00"> (0x561c86a1d9b0,0x561c86a145a8) printf : &amp;code{printf}</text>
<text text-anchor="start" x="8" y="-1663.3" font-family="Times,serif" font-size="14.00"> (0x561c86a1d9b0,0x561c86a14638) printf : &amp;code{printf}</text>
<text text-anchor="start" x="8" y="-1648.3" font-family="Times,serif" font-size="14.00"> (0x561c86a1d9b0,0x561c86a14680) &quot;Bye!\n&quot; : &amp;element{&quot;Bye!\n&quot;,0 S64b,char}</text>
<polyline fill="none" stroke="black" points="-2.84217e-14,-1640.5 469,-1640.5 "/>
<text text-anchor="start" x="8" y="-1625.3" font-family="Times,serif" font-size="14.00">Ranges are empty.</text>
</g>
<!-- Node0x561c86a29e90&#45;&gt;Node0x561c86a2a0a8 -->
<g id="edge7" class="edge"><title>Node0x561c86a29e90&#45;&gt;Node0x561c86a2a0a8</title>
<path fill="none" stroke="black" d="M234.5,-1899.15C234.5,-1890.54 234.5,-1881.82 234.5,-1873.13"/>
<polygon fill="black" stroke="black" points="238,-1872.94 234.5,-1862.94 231,-1872.94 238,-1872.94"/>
</g>
<!-- Node0x561c86a2a2d0 -->
<g id="node9" class="node"><title>Node0x561c86a2a2d0</title>
<polygon fill="none" stroke="black" points="-2.84217e-14,-1288.5 -2.84217e-14,-1564.5 469,-1564.5 469,-1288.5 -2.84217e-14,-1288.5"/>
<text text-anchor="start" x="8" y="-1549.3" font-family="Times,serif" font-size="14.00">ImplicitCastExpr 0x561c86a14698 &quot;Bye!\n&quot;</text>
<text text-anchor="start" x="8" y="-1534.3" font-family="Times,serif" font-size="14.00">line=8 col=12</text>
<polyline fill="none" stroke="black" points="-2.84217e-14,-1526.5 469,-1526.5 "/>
<text text-anchor="middle" x="234.5" y="-1511.3" font-family="Times,serif" font-size="14.00">StateID: 0x561c86a2a2a0 NodeID: 0x561c86a2a2d0</text>
<polyline fill="none" stroke="black" points="-2.84217e-14,-1503.5 469,-1503.5 "/>
<text text-anchor="start" x="8" y="-1488.3" font-family="Times,serif" font-size="14.00">Location context stack (from current to outer):</text>
<text text-anchor="start" x="8" y="-1473.3" font-family="Times,serif" font-size="14.00">0. (0x561c86a1d9b0) Calling sayBye</text>
<text text-anchor="start" x="8" y="-1442.3" font-family="Times,serif" font-size="14.00">Store (direct and default bindings), 0x0 :</text>
<text text-anchor="start" x="8" y="-1395.3" font-family="Times,serif" font-size="14.00">Expressions:</text>
<text text-anchor="start" x="8" y="-1380.3" font-family="Times,serif" font-size="14.00"> (0x561c86a1d9b0,0x561c86a145a8) printf : &amp;code{printf}</text>
<text text-anchor="start" x="8" y="-1365.3" font-family="Times,serif" font-size="14.00"> (0x561c86a1d9b0,0x561c86a14638) printf : &amp;code{printf}</text>
<text text-anchor="start" x="8" y="-1350.3" font-family="Times,serif" font-size="14.00"> (0x561c86a1d9b0,0x561c86a14680) &quot;Bye!\n&quot; : &amp;element{&quot;Bye!\n&quot;,0 S64b,char}</text>
<text text-anchor="start" x="8" y="-1335.3" font-family="Times,serif" font-size="14.00"> (0x561c86a1d9b0,0x561c86a14698) &quot;Bye!\n&quot; : &amp;element{&quot;Bye!\n&quot;,0 S64b,char}</text>
<polyline fill="none" stroke="black" points="-2.84217e-14,-1327.5 469,-1327.5 "/>
<text text-anchor="start" x="8" y="-1312.3" font-family="Times,serif" font-size="14.00">Ranges are empty.</text>
</g>
<!-- Node0x561c86a2a0a8&#45;&gt;Node0x561c86a2a2d0 -->
<g id="edge8" class="edge"><title>Node0x561c86a2a0a8&#45;&gt;Node0x561c86a2a2d0</title>
<path fill="none" stroke="black" d="M234.5,-1601.41C234.5,-1592.72 234.5,-1583.94 234.5,-1575.17"/>
<polygon fill="black" stroke="black" points="238,-1574.9 234.5,-1564.9 231,-1574.9 238,-1574.9"/>
</g>
<!-- Node0x561c86a2a3f0 -->
<g id="node10" class="node"><title>Node0x561c86a2a3f0</title>
<polygon fill="none" stroke="black" points="-2.84217e-14,-997.5 -2.84217e-14,-1251.5 469,-1251.5 469,-997.5 -2.84217e-14,-997.5"/>
<text text-anchor="middle" x="234.5" y="-1236.3" font-family="Times,serif" font-size="14.00">PreStmtPurgeDeadSymbols</text>
<polyline fill="none" stroke="black" points="-2.84217e-14,-1228.5 469,-1228.5 "/>
<text text-anchor="middle" x="234.5" y="-1213.3" font-family="Times,serif" font-size="14.00">StateID: 0x561c86a2a3c0 NodeID: 0x561c86a2a3f0</text>
<polyline fill="none" stroke="black" points="-2.84217e-14,-1205.5 469,-1205.5 "/>
<text text-anchor="start" x="8" y="-1190.3" font-family="Times,serif" font-size="14.00">Location context stack (from current to outer):</text>
<text text-anchor="start" x="8" y="-1175.3" font-family="Times,serif" font-size="14.00">0. (0x561c86a1d9b0) Calling sayBye</text>
<text text-anchor="start" x="8" y="-1144.3" font-family="Times,serif" font-size="14.00">Store (direct and default bindings), 0x0 :</text>
<text text-anchor="start" x="8" y="-1097.3" font-family="Times,serif" font-size="14.00">Expressions:</text>
<text text-anchor="start" x="8" y="-1082.3" font-family="Times,serif" font-size="14.00"> (0x561c86a1d9b0,0x561c86a14638) printf : &amp;code{printf}</text>
<text text-anchor="start" x="8" y="-1067.3" font-family="Times,serif" font-size="14.00"> (0x561c86a1d9b0,0x561c86a14698) &quot;Bye!\n&quot; : &amp;element{&quot;Bye!\n&quot;,0 S64b,char}</text>
<polyline fill="none" stroke="black" points="-2.84217e-14,-1059.5 469,-1059.5 "/>
<text text-anchor="start" x="8" y="-1044.3" font-family="Times,serif" font-size="14.00">Ranges are empty.</text>
<polyline fill="none" stroke="black" points="-2.84217e-14,-1020.5 469,-1020.5 "/>
<text text-anchor="start" x="8" y="-1005.3" font-family="Times,serif" font-size="14.00">Tag: ExprEngine : Clean Node</text>
</g>
<!-- Node0x561c86a2a2d0&#45;&gt;Node0x561c86a2a3f0 -->
<g id="edge9" class="edge"><title>Node0x561c86a2a2d0&#45;&gt;Node0x561c86a2a3f0</title>
<path fill="none" stroke="black" d="M234.5,-1288.23C234.5,-1279.47 234.5,-1270.65 234.5,-1261.89"/>
<polygon fill="black" stroke="black" points="238,-1261.65 234.5,-1251.65 231,-1261.65 238,-1261.65"/>
</g>
<!-- Node0x561c86a2a7d8 -->
<g id="node11" class="node"><title>Node0x561c86a2a7d8</title>
<polygon fill="none" stroke="black" points="-2.84217e-14,-637.5 -2.84217e-14,-960.5 469,-960.5 469,-637.5 -2.84217e-14,-637.5"/>
<text text-anchor="start" x="8" y="-945.3" font-family="Times,serif" font-size="14.00">CallExpr 0x561c86a14650 printf(&quot;Bye!\n&quot;)</text>
<text text-anchor="start" x="8" y="-930.3" font-family="Times,serif" font-size="14.00">line=8 col=5</text>
<polyline fill="none" stroke="black" points="-2.84217e-14,-922.5 469,-922.5 "/>
<text text-anchor="middle" x="234.5" y="-907.3" font-family="Times,serif" font-size="14.00">StateID: 0x561c86a2a7a8 NodeID: 0x561c86a2a7d8</text>
<polyline fill="none" stroke="black" points="-2.84217e-14,-899.5 469,-899.5 "/>
<text text-anchor="start" x="8" y="-884.3" font-family="Times,serif" font-size="14.00">Location context stack (from current to outer):</text>
<text text-anchor="start" x="8" y="-869.3" font-family="Times,serif" font-size="14.00">0. (0x561c86a1d9b0) Calling sayBye</text>
<text text-anchor="start" x="8" y="-838.3" font-family="Times,serif" font-size="14.00">Store (direct and default bindings), 0x561c86a2a640 :</text>
<text text-anchor="start" x="8" y="-823.3" font-family="Times,serif" font-size="14.00"> (GlobalInternalSpaceRegion,0,default) : conj_$0{int}</text>
<text text-anchor="start" x="8" y="-792.3" font-family="Times,serif" font-size="14.00"> (GlobalSystemSpaceRegion,0,default) : conj_$1{int}</text>
<text text-anchor="start" x="8" y="-729.3" font-family="Times,serif" font-size="14.00">Expressions:</text>
<text text-anchor="start" x="8" y="-714.3" font-family="Times,serif" font-size="14.00"> (0x561c86a1d9b0,0x561c86a14638) printf : &amp;code{printf}</text>
<text text-anchor="start" x="8" y="-699.3" font-family="Times,serif" font-size="14.00"> (0x561c86a1d9b0,0x561c86a14650) printf(&quot;Bye!\n&quot;) : conj_$2{int}</text>
<text text-anchor="start" x="8" y="-684.3" font-family="Times,serif" font-size="14.00"> (0x561c86a1d9b0,0x561c86a14698) &quot;Bye!\n&quot; : &amp;element{&quot;Bye!\n&quot;,0 S64b,char}</text>
<polyline fill="none" stroke="black" points="-2.84217e-14,-676.5 469,-676.5 "/>
<text text-anchor="start" x="8" y="-661.3" font-family="Times,serif" font-size="14.00">Ranges are empty.</text>
</g>
<!-- Node0x561c86a2a3f0&#45;&gt;Node0x561c86a2a7d8 -->
<g id="edge10" class="edge"><title>Node0x561c86a2a3f0&#45;&gt;Node0x561c86a2a7d8</title>
<path fill="none" stroke="black" d="M234.5,-997.037C234.5,-988.346 234.5,-979.512 234.5,-970.642"/>
<polygon fill="black" stroke="black" points="238,-970.618 234.5,-960.619 231,-970.619 238,-970.618"/>
</g>
<!-- Node0x561c86a2a818 -->
<g id="node12" class="node"><title>Node0x561c86a2a818</title>
<polygon fill="none" stroke="black" points="-2.84217e-14,-292.5 -2.84217e-14,-600.5 469,-600.5 469,-292.5 -2.84217e-14,-292.5"/>
<text text-anchor="middle" x="234.5" y="-585.3" font-family="Times,serif" font-size="14.00">Edge: (B1, B0)</text>
<polyline fill="none" stroke="black" points="-2.84217e-14,-577.5 469,-577.5 "/>
<text text-anchor="middle" x="234.5" y="-562.3" font-family="Times,serif" font-size="14.00">StateID: 0x561c86a2a7a8 NodeID: 0x561c86a2a818</text>
<polyline fill="none" stroke="black" points="-2.84217e-14,-554.5 469,-554.5 "/>
<text text-anchor="start" x="8" y="-539.3" font-family="Times,serif" font-size="14.00">Location context stack (from current to outer):</text>
<text text-anchor="start" x="8" y="-524.3" font-family="Times,serif" font-size="14.00">0. (0x561c86a1d9b0) Calling sayBye</text>
<text text-anchor="start" x="8" y="-493.3" font-family="Times,serif" font-size="14.00">Store (direct and default bindings), 0x561c86a2a640 :</text>
<text text-anchor="start" x="8" y="-478.3" font-family="Times,serif" font-size="14.00"> (GlobalInternalSpaceRegion,0,default) : conj_$0{int}</text>
<text text-anchor="start" x="8" y="-447.3" font-family="Times,serif" font-size="14.00"> (GlobalSystemSpaceRegion,0,default) : conj_$1{int}</text>
<text text-anchor="start" x="8" y="-384.3" font-family="Times,serif" font-size="14.00">Expressions:</text>
<text text-anchor="start" x="8" y="-369.3" font-family="Times,serif" font-size="14.00"> (0x561c86a1d9b0,0x561c86a14638) printf : &amp;code{printf}</text>
<text text-anchor="start" x="8" y="-354.3" font-family="Times,serif" font-size="14.00"> (0x561c86a1d9b0,0x561c86a14650) printf(&quot;Bye!\n&quot;) : conj_$2{int}</text>
<text text-anchor="start" x="8" y="-339.3" font-family="Times,serif" font-size="14.00"> (0x561c86a1d9b0,0x561c86a14698) &quot;Bye!\n&quot; : &amp;element{&quot;Bye!\n&quot;,0 S64b,char}</text>
<polyline fill="none" stroke="black" points="-2.84217e-14,-331.5 469,-331.5 "/>
<text text-anchor="start" x="8" y="-316.3" font-family="Times,serif" font-size="14.00">Ranges are empty.</text>
</g>
<!-- Node0x561c86a2a7d8&#45;&gt;Node0x561c86a2a818 -->
<g id="edge11" class="edge"><title>Node0x561c86a2a7d8&#45;&gt;Node0x561c86a2a818</title>
<path fill="none" stroke="black" d="M234.5,-637.368C234.5,-628.469 234.5,-619.52 234.5,-610.613"/>
<polygon fill="black" stroke="black" points="238,-610.579 234.5,-600.579 231,-610.579 238,-610.579"/>
</g>
<!-- Node0x561c86a2a858 -->
<g id="node13" class="node"><title>Node0x561c86a2a858</title>
<polygon fill="none" stroke="black" points="77.5,-0.5 77.5,-255.5 391.5,-255.5 391.5,-0.5 77.5,-0.5"/>
<text text-anchor="middle" x="234.5" y="-240.3" font-family="Times,serif" font-size="14.00">PostStmtPurgeDeadSymbols</text>
<polyline fill="none" stroke="black" points="77.5,-232.5 391.5,-232.5 "/>
<text text-anchor="middle" x="234.5" y="-217.3" font-family="Times,serif" font-size="14.00">StateID: 0x561c86a2a688 NodeID: 0x561c86a2a858</text>
<polyline fill="none" stroke="black" points="77.5,-209.5 391.5,-209.5 "/>
<text text-anchor="start" x="85.5" y="-194.3" font-family="Times,serif" font-size="14.00">Location context stack (from current to outer):</text>
<text text-anchor="start" x="85.5" y="-179.3" font-family="Times,serif" font-size="14.00">0. (0x561c86a1d9b0) Calling sayBye</text>
<text text-anchor="start" x="85.5" y="-148.3" font-family="Times,serif" font-size="14.00">Store (direct and default bindings), 0x561c86a2a640 :</text>
<text text-anchor="start" x="85.5" y="-133.3" font-family="Times,serif" font-size="14.00"> (GlobalInternalSpaceRegion,0,default) : conj_$0{int}</text>
<text text-anchor="start" x="85.5" y="-102.3" font-family="Times,serif" font-size="14.00"> (GlobalSystemSpaceRegion,0,default) : conj_$1{int}</text>
<polyline fill="none" stroke="black" points="77.5,-62.5 391.5,-62.5 "/>
<text text-anchor="start" x="85.5" y="-47.3" font-family="Times,serif" font-size="14.00">Ranges are empty.</text>
<polyline fill="none" stroke="black" points="77.5,-23.5 391.5,-23.5 "/>
<text text-anchor="start" x="85.5" y="-8.3" font-family="Times,serif" font-size="14.00">Tag: ExprEngine : Clean Node</text>
</g>
<!-- Node0x561c86a2a818&#45;&gt;Node0x561c86a2a858 -->
<g id="edge12" class="edge"><title>Node0x561c86a2a818&#45;&gt;Node0x561c86a2a858</title>
<path fill="none" stroke="black" d="M234.5,-292.349C234.5,-283.503 234.5,-274.636 234.5,-265.858"/>
<polygon fill="black" stroke="black" points="238,-265.601 234.5,-255.601 231,-265.601 238,-265.601"/>
</g>
</g>
</svg>
